<svg width="48" height="48" viewBox="0 0 48 48" fill="none" xmlns="http://www.w3.org/2000/svg">
<circle cx="24" cy="24" r="24" fill="url(#paint0_linear_10_2023)"/>
<g clip-path="url(#clip0_10_2023)">
<path d="M24.0047 18.8845C20.8815 18.8845 18.3623 21.3894 18.3623 24.4949C18.3623 27.6003 20.8815 30.1052 24.0047 30.1052C27.1279 30.1052 29.6471 27.6003 29.6471 24.4949C29.6471 21.3894 27.1279 18.8845 24.0047 18.8845ZM24.0047 28.1423C21.9864 28.1423 20.3364 26.5066 20.3364 24.4949C20.3364 22.4832 21.9815 20.8474 24.0047 20.8474C26.0279 20.8474 27.673 22.4832 27.673 24.4949C27.673 26.5066 26.023 28.1423 24.0047 28.1423ZM31.194 18.655C31.194 19.3826 30.6047 19.9636 29.8779 19.9636C29.1462 19.9636 28.5618 19.3777 28.5618 18.655C28.5618 17.9324 29.1511 17.3464 29.8779 17.3464C30.6047 17.3464 31.194 17.9324 31.194 18.655ZM34.931 19.9832C34.8475 18.2302 34.4449 16.6775 33.1533 15.3982C31.8667 14.1189 30.3051 13.7185 28.5422 13.6306C26.7252 13.5281 21.2792 13.5281 19.4623 13.6306C17.7042 13.7136 16.1426 14.114 14.8511 15.3933C13.5596 16.6726 13.1618 18.2253 13.0734 19.9783C12.9703 21.7849 12.9703 27.1999 13.0734 29.0066C13.1569 30.7595 13.5596 32.3123 14.8511 33.5916C16.1426 34.8708 17.6993 35.2712 19.4623 35.3591C21.2792 35.4617 26.7252 35.4617 28.5422 35.3591C30.3051 35.2761 31.8667 34.8757 33.1533 33.5916C34.44 32.3123 34.8426 30.7595 34.931 29.0066C35.0342 27.1999 35.0342 21.7898 34.931 19.9832ZM32.5837 30.9451C32.2007 31.9021 31.4592 32.6394 30.4917 33.0251C29.0431 33.5964 25.6056 33.4646 24.0047 33.4646C22.4038 33.4646 18.9614 33.5916 17.5176 33.0251C16.5551 32.6443 15.8136 31.907 15.4257 30.9451C14.8511 29.5046 14.9837 26.0867 14.9837 24.4949C14.9837 22.9031 14.856 19.4802 15.4257 18.0447C15.8087 17.0876 16.5502 16.3503 17.5176 15.9646C18.9663 15.3933 22.4038 15.5251 24.0047 15.5251C25.6056 15.5251 29.048 15.3982 30.4917 15.9646C31.4542 16.3455 32.1958 17.0828 32.5837 18.0447C33.1583 19.4851 33.0257 22.9031 33.0257 24.4949C33.0257 26.0867 33.1583 29.5095 32.5837 30.9451Z" fill="white"/>
</g>
<defs>
<linearGradient id="paint0_linear_10_2023" x1="-3" y1="55.5" x2="39.5" y2="6" gradientUnits="userSpaceOnUse">
<stop stop-color="#F9ED32"/>
<stop offset="1" stop-color="#EE2A7B"/>
</linearGradient>
<clipPath id="clip0_10_2023">
<rect width="22" height="25" fill="white" transform="translate(13 12)"/>
</clipPath>
</defs>
</svg>
