<svg width="48" height="48" viewBox="0 0 48 48" fill="none" xmlns="http://www.w3.org/2000/svg">
<circle cx="24" cy="24" r="24" fill="#45668E"/>
<path d="M36.4383 17.7471C36.6246 17.1367 36.4383 16.6875 35.5421 16.6875H32.5767C31.8215 16.6875 31.4741 17.0732 31.2878 17.5029C31.2878 17.5029 29.7774 21.0723 27.6427 23.3867C26.9529 24.0557 26.6357 24.2705 26.2581 24.2705C26.0718 24.2705 25.7849 24.0557 25.7849 23.4453V17.7471C25.7849 17.0146 25.5734 16.6875 24.9491 16.6875H20.2869C19.8137 16.6875 19.5317 17.0293 19.5317 17.3467C19.5317 18.04 20.5991 18.2012 20.7099 20.1543V24.3926C20.7099 25.3203 20.5387 25.4912 20.1611 25.4912C19.1541 25.4912 16.7072 21.9072 15.2572 17.8057C14.9652 17.0098 14.6783 16.6875 13.918 16.6875H10.9526C10.1067 16.6875 9.93555 17.0732 9.93555 17.5029C9.93555 18.2646 10.9425 22.0488 14.6229 27.0488C17.0748 30.4619 20.5286 32.3125 23.6703 32.3125C25.5583 32.3125 25.7899 31.9023 25.7899 31.1943C25.7899 27.9326 25.6187 27.625 26.5652 27.625C27.0033 27.625 27.7585 27.8398 29.5206 29.4854C31.5345 31.4385 31.8668 32.3125 32.9946 32.3125H35.96C36.8059 32.3125 37.2338 31.9023 36.9871 31.0918C36.4232 29.3877 32.6119 25.8818 32.4408 25.6475C32.0027 25.1006 32.1286 24.8564 32.4408 24.3682C32.4458 24.3633 36.0658 19.4219 36.4383 17.7471Z" fill="white"/>
</svg>
