<svg width="48" height="48" viewBox="0 0 48 48" fill="none" xmlns="http://www.w3.org/2000/svg">
<circle cx="24" cy="24" r="24" fill="#25D366"/>
<g clip-path="url(#clip0_10_2027)">
<path d="M32.5986 15.7412C30.5527 13.6904 27.8281 12.5625 24.9326 12.5625C18.9561 12.5625 14.0928 17.4258 14.0928 23.4023C14.0928 25.3115 14.5908 27.1768 15.5381 28.8223L14 34.4375L19.7471 32.9287C21.3291 33.793 23.1113 34.2471 24.9277 34.2471H24.9326C30.9043 34.2471 35.875 29.3838 35.875 23.4072C35.875 20.5117 34.6445 17.792 32.5986 15.7412ZM24.9326 32.4209C23.3115 32.4209 21.7246 31.9863 20.3428 31.166L20.0156 30.9707L16.6074 31.8643L17.5156 28.5391L17.3008 28.1973C16.3975 26.7617 15.9238 25.1064 15.9238 23.4023C15.9238 18.4365 19.9668 14.3936 24.9375 14.3936C27.3447 14.3936 29.6055 15.3311 31.3047 17.0352C33.0039 18.7393 34.0488 21 34.0439 23.4072C34.0439 28.3779 29.8984 32.4209 24.9326 32.4209ZM29.874 25.6729C29.6055 25.5361 28.2725 24.8818 28.0234 24.7939C27.7744 24.7012 27.5938 24.6572 27.4131 24.9307C27.2324 25.2041 26.7148 25.8096 26.5537 25.9951C26.3975 26.1758 26.2363 26.2002 25.9678 26.0635C24.376 25.2676 23.3311 24.6426 22.2812 22.8408C22.0029 22.3623 22.5596 22.3965 23.0771 21.3613C23.165 21.1807 23.1211 21.0244 23.0527 20.8877C22.9844 20.751 22.4424 19.418 22.2178 18.876C21.998 18.3486 21.7734 18.4219 21.6074 18.4121C21.4512 18.4023 21.2705 18.4023 21.0898 18.4023C20.9092 18.4023 20.6162 18.4707 20.3672 18.7393C20.1182 19.0127 19.4199 19.667 19.4199 21C19.4199 22.333 20.3916 23.6221 20.5234 23.8027C20.6602 23.9834 22.4326 26.7178 25.1523 27.8945C26.8711 28.6367 27.5449 28.7002 28.4043 28.5732C28.9268 28.4951 30.0059 27.9189 30.2305 27.2842C30.4551 26.6494 30.4551 26.1074 30.3867 25.9951C30.3232 25.873 30.1426 25.8047 29.874 25.6729Z" fill="white"/>
</g>
<defs>
<clipPath id="clip0_10_2027">
<rect width="21.875" height="25" fill="white" transform="translate(14 11)"/>
</clipPath>
</defs>
</svg>
