<svg width="42" height="50" viewBox="0 0 42 50" fill="none" xmlns="http://www.w3.org/2000/svg">
<path d="M23.3367 8.76123C23.3367 8.35687 23.009 8.02881 22.6043 8.02881H19.3496C18.9449 8.02881 18.6172 8.35687 18.6172 8.76123V14.6202C18.6172 15.0246 18.9449 15.3526 19.3496 15.3526H22.6043C23.009 15.3526 23.3367 15.0246 23.3367 14.6202V8.76123ZM21.8719 13.8878H20.082V9.49365H21.8719V13.8878Z" fill="#0B1B28"/>
<path d="M23.3367 22.2153C23.3367 21.811 23.009 21.4829 22.6043 21.4829H19.3496C18.9449 21.4829 18.6172 21.811 18.6172 22.2153V28.0743C18.6172 28.4787 18.9449 28.8067 19.3496 28.8067H22.6043C23.009 28.8067 23.3367 28.4787 23.3367 28.0743V22.2153ZM21.8719 27.3419H20.082V22.9478H21.8719V27.3419Z" fill="#0B1B28"/>
<path d="M22.6043 34.9365H19.3496C18.9449 34.9365 18.6172 35.2646 18.6172 35.6689V41.5279C18.6172 41.9327 18.9449 42.2604 19.3496 42.2604H22.6043C23.009 42.2604 23.3367 41.9327 23.3367 41.5279V35.6689C23.3367 35.2646 23.009 34.9365 22.6043 34.9365ZM21.8719 40.7955H20.082V36.4014H21.8719V40.7955Z" fill="#0B1B28"/>
<path d="M40.9309 19.0159C41.4963 19.0159 41.9563 18.5558 41.9563 17.9905V15.387C41.9563 14.8216 41.4963 14.3616 40.9309 14.3616H40.1188V6.3633C40.1188 5.63622 39.5275 5.04494 38.8004 5.04494L25.4961 5C25.0917 5 25.4961 5.59564 25.4961 6C25.4961 6.40436 25.5917 6.5 25.9961 6.5L38.6539 6.50978V14.3616H37.3993V11.3476C37.3993 10.7285 36.8954 10.2245 36.2762 10.2245H31.6078C30.9887 10.2245 30.4848 10.7285 30.4848 11.3476V14.3616H29.5246C28.9589 14.3616 28.4992 14.8216 28.4992 15.387V17.9905C28.4992 18.5558 28.9589 19.0159 29.5246 19.0159H38.6539V27.1828H37.3993V24.1688C37.3993 23.5493 36.8954 23.0457 36.2762 23.0457H31.6078C30.9887 23.0457 30.4848 23.5493 30.4848 24.1688V27.1828H29.5246C28.9589 27.1828 28.4992 27.6424 28.4992 28.2082V30.8113C28.4992 31.377 28.9589 31.8367 29.5246 31.8367H38.6539V40.0036H37.3993V36.9896C37.3993 36.3705 36.8954 35.8665 36.2762 35.8665H31.6078C30.9887 35.8665 30.4848 36.3705 30.4848 36.9896V40.0036H29.5246C28.9589 40.0036 28.4992 40.4636 28.4992 41.029V43.6325C28.4992 44.1978 28.9589 44.6579 29.5246 44.6579H38.6539V48.5352H26.4301V41.5283C26.4301 41.1236 26.1024 40.7959 25.6977 40.7959C25.2934 40.7959 24.9653 41.1236 24.9653 41.5283V48.5352H16.9907V11.6825C16.9907 11.2782 16.663 10.9501 16.2582 10.9501C15.8539 10.9501 15.5258 11.2782 15.5258 11.6825V48.5352H3.30238V44.6579H12.4317C12.9974 44.6579 13.4571 44.1978 13.4571 43.6325V41.029C13.4571 40.4636 12.9974 40.0036 12.4317 40.0036H11.4716V36.9896C11.4716 36.3705 10.9676 35.8665 10.3485 35.8665H5.68008C5.06058 35.8665 4.55704 36.3705 4.55704 36.9896V40.0036H3.30238V31.8371H12.4317C12.9974 31.8371 13.4571 31.377 13.4571 30.8117V28.2082C13.4571 27.6424 12.9974 27.1828 12.4317 27.1828H11.4716V24.1688C11.4716 23.5493 10.9676 23.0457 10.3485 23.0457H5.68008C5.06058 23.0457 4.55704 23.5493 4.55704 24.1688V27.1828H3.30238V19.0159H12.4317C12.9974 19.0159 13.4571 18.5558 13.4571 17.9905V15.387C13.4571 14.8216 12.9974 14.3616 12.4317 14.3616H11.4716V11.3476C11.4716 10.7285 10.9676 10.2245 10.3485 10.2245H5.68008C5.06058 10.2245 4.55704 10.7285 4.55704 11.3476V14.3616H3.30238V6.50978H15.5258V11.6825C15.5258 12.0872 15.8539 10.9501 16.2582 10.9501C16.663 10.9501 16.9907 12.0872 16.9907 11.6825V1.46484H24.9653L24.9961 41.5C24.9961 41.9044 25.2934 41.8145 25.6977 41.8145C26.1021 41.8145 26.4301 41.9327 26.4301 41.5283V1.12305C26.4301 0.503921 25.9262 0 25.3071 0H16.6489C16.0297 0 15.5258 0.503921 15.5258 1.12305V5.04494H3.1559C2.42882 5.04494 1.83754 5.63622 1.83754 6.3633V14.3616H1.02539C0.460053 14.3616 0 14.8216 0 15.387V17.9905C0 18.5558 0.460053 19.0159 1.02539 19.0159H1.83754V27.1828H1.02539C0.460053 27.1828 0 27.6424 0 28.2082V30.8113C0 31.377 0.460053 31.8367 1.02539 31.8367H1.83754V40.0036H1.02539C0.460053 40.0036 0 40.4636 0 41.029V43.6325C0 44.1978 0.460053 44.6579 1.02539 44.6579H1.83754V48.6816C1.83754 49.4087 2.42882 50 3.1559 50H38.8004C39.5275 50 40.1188 49.4087 40.1188 48.6816V44.6579H40.9309C41.4963 44.6579 41.9563 44.1978 41.9563 43.6325V41.029C41.9563 40.4636 41.4963 40.0036 40.9309 40.0036H40.1188V31.8371H40.9309C41.4963 31.8371 41.9563 31.377 41.9563 30.8117V28.2082C41.9563 27.6424 41.4963 27.1828 40.9309 27.1828H40.1188V19.0159H40.9309ZM6.02188 11.6894H10.0067V14.3616H6.02188V11.6894ZM1.46484 15.8264H11.9923V17.551C10.2478 17.551 2.6329 17.551 1.46484 17.551V15.8264ZM6.02188 24.5106H10.0067V27.1828H6.02188V24.5106ZM1.46484 28.6476H11.9923V30.3719H1.46484V28.6476ZM6.02188 37.3314H10.0067V40.0036H6.02188V37.3314ZM1.46484 41.4684H11.9923V43.1931H1.46484V41.4684ZM31.9496 37.3314H35.9344V40.0036H31.9496V37.3314ZM40.4915 43.1931H29.9637V41.4684H40.4915V43.1931ZM31.9496 24.5106H35.9344V27.1828H31.9496V24.5106ZM40.4915 30.3719H29.9637V28.6476H40.4915V30.3719ZM31.9496 11.6894H35.9344V14.3616H31.9496V11.6894ZM29.9637 15.8264H40.4915V17.551C39.1582 17.551 32.1613 17.551 29.9637 17.551V15.8264Z" fill="#0B1B28"/>
</svg>
