<svg width="51" height="49" viewBox="0 0 51 49" fill="none" xmlns="http://www.w3.org/2000/svg">
<path d="M48.0933 42.2938C48.0946 42.2581 48.0952 42.2227 48.0952 42.1875C48.0942 41.2927 47.7383 40.4348 47.1056 39.8021C46.4728 39.1694 45.615 38.8135 44.7202 38.8125V23.2031L47.7577 20.925C47.8632 20.8459 47.9487 20.7431 48.0073 20.625C48.0659 20.5069 48.096 20.3766 48.0952 20.2448C48.0943 20.1129 48.0626 19.9831 48.0025 19.8657C47.9425 19.7483 47.8557 19.6466 47.7493 19.5688L40.5014 14.2722V5.0625C40.7252 5.0625 40.9398 4.97361 41.0981 4.81537C41.2563 4.65714 41.3452 4.44253 41.3452 4.21875V0.84375C41.3452 0.619974 41.2563 0.405362 41.0981 0.247129C40.9398 0.0888948 40.7252 0 40.5014 0H32.0639C31.8402 0 31.6256 0.0888948 31.4673 0.247129C31.3091 0.405362 31.2202 0.619974 31.2202 0.84375V4.21875C31.2202 4.44253 31.3091 4.65714 31.4673 4.81537C31.6256 4.97361 31.8402 5.0625 32.0639 5.0625V8.10643L25.8118 3.53753C25.6672 3.43193 25.4929 3.37502 25.3139 3.37502C25.135 3.37502 24.9606 3.43193 24.8161 3.53753L2.87863 19.5688C2.77216 19.6466 2.6854 19.7483 2.62533 19.8657C2.56526 19.9831 2.53354 20.1129 2.53272 20.2448C2.5319 20.3766 2.562 20.5069 2.62061 20.625C2.67921 20.7431 2.76469 20.8459 2.87019 20.925L5.90769 23.2031V38.8125C5.01289 38.8135 4.15503 39.1694 3.52231 39.8021C2.8896 40.4348 2.53369 41.2927 2.53269 42.1875C2.53269 42.2227 2.53332 42.2581 2.53459 42.2938C1.73861 42.4985 1.04465 42.9865 0.582935 43.6665C0.121217 44.3464 -0.0765353 45.1714 0.0267817 45.9868C0.130099 46.8021 0.527384 47.5518 1.1441 48.095C1.76081 48.6383 2.55457 48.9378 3.37644 48.9375H47.2514C48.0733 48.9378 48.8671 48.6383 49.4838 48.095C50.1005 47.5518 50.4978 46.8021 50.6011 45.9868C50.7044 45.1714 50.5067 44.3464 50.0449 43.6665C49.5832 42.9865 48.8893 42.4985 48.0933 42.2938ZM32.9077 1.6875H39.6577V3.375H32.9077V1.6875ZM33.7514 9.28125V5.0625H38.8139V13.0391L33.6716 9.28125H33.7514ZM25.3139 5.26373L45.8334 20.2589L43.8687 21.7324L25.8103 8.59887C25.666 8.49395 25.4923 8.43744 25.3139 8.43744C25.1356 8.43744 24.9618 8.49395 24.8176 8.59887L6.75914 21.7324L4.79447 20.2589L25.3139 5.26373ZM1.68894 45.5625C1.68941 45.1195 1.86389 44.6943 2.17479 44.3787C2.48569 44.063 2.90814 43.8822 3.35113 43.875H3.35313C3.39627 43.881 3.43941 43.8862 3.48339 43.889C3.62321 43.8979 3.76303 43.8717 3.89022 43.813C4.01742 43.7543 4.12799 43.6648 4.21196 43.5526C4.29592 43.4405 4.35064 43.3092 4.37117 43.1706C4.3917 43.032 4.3774 42.8905 4.32956 42.7588C4.25973 42.5763 4.22271 42.3829 4.22019 42.1875C4.22072 41.7401 4.39868 41.3112 4.71503 40.9948C5.03139 40.6785 5.4603 40.5005 5.90769 40.5V47.25H3.37644C2.92905 47.2495 2.50014 47.0715 2.18378 46.7552C1.86743 46.4388 1.68947 46.0099 1.68894 45.5625ZM37.9702 47.25H27.8452V28.6875H37.9702V47.25ZM39.6577 47.25V27.8438C39.6577 27.62 39.5688 27.4054 39.4106 27.2471C39.2523 27.0889 39.0377 27 38.8139 27H27.0014C26.7777 27 26.5631 27.0889 26.4048 27.2471C26.2466 27.4054 26.1577 27.62 26.1577 27.8438V47.25H7.59519V23.2109L25.3139 10.3245L43.0327 23.2109V47.25H39.6577ZM47.2514 47.25H44.7202V40.5C45.1676 40.5005 45.5965 40.6785 45.9128 40.9948C46.2292 41.3112 46.4072 41.7401 46.4077 42.1875C46.4052 42.383 46.3682 42.5766 46.2983 42.7592C46.2505 42.8909 46.2362 43.0324 46.2567 43.171C46.2772 43.3096 46.332 43.4409 46.4159 43.5531C46.4999 43.6652 46.6105 43.7547 46.7377 43.8134C46.8649 43.8721 47.0047 43.8983 47.1445 43.8895C47.1885 43.8866 47.2316 43.8814 47.2747 43.8754H47.2767C47.7243 43.8788 48.1522 44.0598 48.4663 44.3786C48.7804 44.6975 48.955 45.128 48.9516 45.5756C48.9482 46.0231 48.7672 46.451 48.4484 46.7651C48.1295 47.0792 47.699 47.2538 47.2514 47.2504V47.25Z" fill="#0B1B28"/>
<path d="M21.9414 27H11.8164C11.5926 27 11.378 27.0889 11.2198 27.2471C11.0616 27.4054 10.9727 27.62 10.9727 27.8438V39.6562C10.9727 39.88 11.0616 40.0946 11.2198 40.2529C11.378 40.4111 11.5926 40.5 11.8164 40.5H21.9414C22.1652 40.5 22.3798 40.4111 22.538 40.2529C22.6963 40.0946 22.7852 39.88 22.7852 39.6562V27.8438C22.7852 27.62 22.6963 27.4054 22.538 27.2471C22.3798 27.0889 22.1652 27 21.9414 27ZM21.0977 32.9062H17.7227V28.6875H21.0977V32.9062ZM16.0352 28.6875V32.9062H12.6602V28.6875H16.0352ZM12.6602 34.5938H16.0352V38.8125H12.6602V34.5938ZM17.7227 38.8125V34.5938H21.0977V38.8125H17.7227Z" fill="#0B1B28"/>
<path d="M31.1593 37.4478C31.3376 37.0173 31.1332 36.5237 30.7027 36.3454C30.2721 36.1671 29.7786 36.3715 29.6002 36.802C29.4219 37.2325 29.6263 37.7261 30.0569 37.9044C30.4874 38.0828 30.981 37.8783 31.1593 37.4478Z" fill="#0B1B28"/>
</svg>
